# xmcd
#
# Track frame offsets: 
#        150
#        15182
#        28449
#        42463
#        62882
#        82286
#        98069
#        116444
#        129551
#        155824
#        171993
#
# Disc length: 2668 seconds
#
# Revision: 0
# Processed by: cddbd v1.5.2PL0 Copyright (c) Steve Scherf et al.
# Submitted via: ExactAudioCopy v1.4
#
DISCID=970a6a0b
DTITLE=Vanessa Wilkinson - Where Did That Come From?
DYEAR=2007
DGENRE=
TTITLE0=Markin' My Time
TTITLE1=Every Day
TTITLE2=Moth To Flame
TTITLE3=One Desire
TTITLE4=Without You
TTITLE5=Another Fool
TTITLE6=Rain On Me
TTITLE7=Nearly There
TTITLE8=Miss Apathy
TTITLE9=Without Telling Me
TTITLE10=Love's Just Not Enough
EXTD=
EXTT0=
EXTT1=
EXTT2=
EXTT3=
EXTT4=
EXTT5=
EXTT6=
EXTT7=
EXTT8=
EXTT9=
EXTT10=
PLAYORDER=
